<svg viewBox="0 0 1176 1176" width="1176" height="1176" x="0" y="0" xmlns="http://www.w3.org/2000/svg"><defs><pattern id="pattern" x="0" y="0" width="8" height="8" patternUnits="userSpaceOnUse"><polygon points="0,4 0,8 8,0 4,0" fill="#ffffff"></polygon><polygon points="4,8 8,8 8,4" fill="#ffffff"></polygon></pattern><mask id="grating" x="0" y="0" width="1" height="1"><rect x="0" y="0" width="100%" height="100%" fill="url(#pattern)"></rect></mask></defs><g id="horizStripes"><rect fill="#EC8048" height="104" width="100%" x="0" y="0"></rect><rect fill="#4C0000" height="16" width="100%" x="0" y="104"></rect><rect fill="#5C5C5C" height="40" width="100%" x="0" y="120"></rect><rect fill="#EC8048" height="16" width="100%" x="0" y="160"></rect><rect fill="#A8ACE8" height="16" width="100%" x="0" y="176"></rect><rect fill="#4C0000" height="32" width="100%" x="0" y="192"></rect><rect fill="#B84C00" height="88" width="100%" x="0" y="224"></rect><rect fill="#4C0000" height="72" width="100%" x="0" y="312"></rect><rect fill="#6C2400" height="512" width="100%" x="0" y="384"></rect><rect fill="#4C0000" height="72" width="100%" x="0" y="896"></rect><rect fill="#B84C00" height="88" width="100%" x="0" y="968"></rect><rect fill="#4C0000" height="32" width="100%" x="0" y="1056"></rect><rect fill="#A8ACE8" height="16" width="100%" x="0" y="1088"></rect><rect fill="#EC8048" height="16" width="100%" x="0" y="1104"></rect><rect fill="#5C5C5C" height="40" width="100%" x="0" y="1120"></rect><rect fill="#4C0000" height="16" width="100%" x="0" y="1160"></rect></g><g id="vertStripes" mask="url(#grating)"><rect fill="#EC8048" height="100%" width="104" x="0" y="0"></rect><rect fill="#4C0000" height="100%" width="16" x="104" y="0"></rect><rect fill="#5C5C5C" height="100%" width="40" x="120" y="0"></rect><rect fill="#EC8048" height="100%" width="16" x="160" y="0"></rect><rect fill="#A8ACE8" height="100%" width="16" x="176" y="0"></rect><rect fill="#4C0000" height="100%" width="32" x="192" y="0"></rect><rect fill="#B84C00" height="100%" width="88" x="224" y="0"></rect><rect fill="#4C0000" height="100%" width="72" x="312" y="0"></rect><rect fill="#6C2400" height="100%" width="512" x="384" y="0"></rect><rect fill="#4C0000" height="100%" width="72" x="896" y="0"></rect><rect fill="#B84C00" height="100%" width="88" x="968" y="0"></rect><rect fill="#4C0000" height="100%" width="32" x="1056" y="0"></rect><rect fill="#A8ACE8" height="100%" width="16" x="1088" y="0"></rect><rect fill="#EC8048" height="100%" width="16" x="1104" y="0"></rect><rect fill="#5C5C5C" height="100%" width="40" x="1120" y="0"></rect><rect fill="#4C0000" height="100%" width="16" x="1160" y="0"></rect></g></svg>
